<svg width="881" height="775" viewBox="0 0 881 775" fill="none" xmlns="http://www.w3.org/2000/svg">
<g id="undraw_signal_searching_bhpc 1">
<g clip-path="url(#clip0)">
<path id="Vector" d="M700.701 774.246C814.147 774.246 906.113 757.376 906.113 736.566C906.113 715.757 814.147 698.887 700.701 698.887C587.255 698.887 495.289 715.757 495.289 736.566C495.289 757.376 587.255 774.246 700.701 774.246Z" fill="#3F3D56"/>
<g id="flower">
<path id="Vector_2" d="M835.152 735.496C834.94 735.15 829.941 726.802 828.207 709.467C826.617 693.562 827.64 666.755 841.542 629.36C867.881 558.519 835.473 501.36 835.141 500.791L836.74 499.863C836.824 500.008 845.187 514.581 850.127 537.787C856.655 568.552 854.278 600.541 843.275 630.005C816.982 700.725 836.529 734.203 836.73 734.534L835.152 735.496Z" fill="#3F3D56"/>
<path id="Vector_3" d="M824.853 496.631C831.487 496.631 836.865 491.253 836.865 484.62C836.865 477.986 831.487 472.608 824.853 472.608C818.22 472.608 812.842 477.986 812.842 484.62C812.842 491.253 818.22 496.631 824.853 496.631Z" fill="#3F3D56"/>
<path id="Vector_4" d="M862.736 540.982C869.37 540.982 874.748 535.604 874.748 528.97C874.748 522.336 869.37 516.958 862.736 516.958C856.102 516.958 850.725 522.336 850.725 528.97C850.725 535.604 856.102 540.982 862.736 540.982Z" fill="#3F3D56"/>
<path id="Vector_5" d="M836.865 570.549C843.499 570.549 848.877 565.171 848.877 558.537C848.877 551.903 843.499 546.525 836.865 546.525C830.231 546.525 824.854 551.903 824.854 558.537C824.854 565.171 830.231 570.549 836.865 570.549Z" fill="#6C63FF"/>
<path id="Vector_6" d="M868.28 595.496C874.914 595.496 880.291 590.118 880.291 583.484C880.291 576.85 874.914 571.473 868.28 571.473C861.646 571.473 856.268 576.85 856.268 583.484C856.268 590.118 861.646 595.496 868.28 595.496Z" fill="#6C63FF"/>
<path id="Vector_7" d="M827.625 634.302C834.259 634.302 839.637 628.925 839.637 622.291C839.637 615.657 834.259 610.279 827.625 610.279C820.991 610.279 815.614 615.657 815.614 622.291C815.614 628.925 820.991 634.302 827.625 634.302Z" fill="#3F3D56"/>
</g>
<path id="Vector_8" d="M842.409 735.939C842.409 735.939 830.397 706.372 866.432 684.197L842.409 735.939Z" fill="#3F3D56"/>
<path id="Vector_9" d="M827.636 735.402C827.636 735.402 822.17 703.96 779.859 704.23L827.636 735.402Z" fill="#3F3D56"/>
<path id="Vector_10" d="M786.679 664.625L794.378 695.42L760.504 704.659L757.424 672.324L786.679 664.625Z" fill="#FBBEBE"/>
<path id="Vector_11" d="M663.5 703.119V732.374L629.625 738.533L623.466 723.135L635.784 696.96L663.5 703.119Z" fill="#FBBEBE"/>
<path id="Vector_12" d="M731.249 384.392L726.629 425.965L729.709 506.032C729.709 506.032 734.328 506.032 734.328 510.651C734.328 515.27 729.709 513.73 734.328 516.81C736.806 518.493 739.376 520.035 742.027 521.429L791.299 670.784C791.299 670.784 778.981 686.182 755.884 681.562L751.265 666.165C751.265 666.165 742.027 656.927 742.027 652.307C742.027 647.688 745.106 646.148 742.027 641.529C738.947 636.91 692.755 542.986 692.755 542.986L671.199 504.492L665.04 556.843C665.04 556.843 677.358 623.052 674.278 653.847C671.199 684.642 665.04 716.977 665.04 716.977L628.086 710.818C627.918 705.849 626.314 701.035 623.467 696.96C618.847 690.801 612.688 692.341 618.847 687.721C625.006 683.102 632.705 687.721 626.546 681.562C620.387 675.403 620.387 669.244 620.387 669.244V664.625L611.149 546.065L594.211 390.551L731.249 384.392Z" fill="#2F2E41"/>
<path id="Vector_13" d="M626.546 104.159C649.506 104.159 668.119 85.5458 668.119 62.5857C668.119 39.6255 649.506 21.0126 626.546 21.0126C603.586 21.0126 584.973 39.6255 584.973 62.5857C584.973 85.5458 603.586 104.159 626.546 104.159Z" fill="#FBBEBE"/>
<path id="Vector_14" d="M662.73 63.356L679.667 104.929L639.634 134.184L614.998 91.071L662.73 63.356Z" fill="#FBBEBE"/>
<path id="Vector_15" d="M665.039 94.9203L680.437 87.2216L689.675 108.778C689.675 108.778 749.725 127.255 745.106 211.941C740.487 296.627 729.709 328.961 729.709 328.961C729.709 328.961 755.884 384.392 740.487 390.551C725.089 396.71 594.211 419.806 591.132 398.25C588.052 376.693 601.91 250.434 601.91 250.434C601.91 250.434 597.291 159.59 635.784 141.113L628.086 124.175L665.039 94.9203Z" fill="#D0CDE1"/>
<path id="Vector_16" d="M652.721 724.675L669.659 718.516C669.659 718.516 688.136 760.089 672.738 760.089H632.705C632.705 760.089 609.609 752.391 597.291 752.391C584.973 752.391 561.877 729.294 578.814 718.516C595.751 707.738 617.307 710.818 617.307 710.818L623.466 696.96L631.165 718.516C631.165 718.516 640.404 733.914 652.721 724.675Z" fill="#2F2E41"/>
<path id="Vector_17" d="M777.441 690.801C777.441 690.801 787.083 684.717 792.27 686.989C797.457 689.261 800.537 713.897 800.537 713.897C800.537 713.897 815.934 732.374 782.06 735.453C748.186 738.533 740.487 732.374 737.407 723.136C734.328 713.897 740.487 704.659 740.487 704.659L749.725 701.579C749.725 701.579 760.504 693.88 757.424 690.801C754.345 687.721 757.424 681.562 757.424 681.562C757.424 681.562 768.202 703.119 777.441 690.801Z" fill="#2F2E41"/>
<path id="Vector_18" d="M640.765 61.9195C640.596 60.574 640.293 59.2488 639.861 57.9635C637.627 53.2758 628.909 54.644 627.355 49.6888C627.051 48.719 627.115 47.6641 626.817 46.6924C626.057 44.2146 623.143 42.9858 620.554 43.1047C617.965 43.2236 615.541 44.33 613.048 45.0375C606.957 46.7662 600.477 46.1063 594.181 45.4324C591.398 45.1345 588.51 44.8021 586.126 43.3354C583.741 41.8688 582.024 38.9163 582.892 36.2551C583.724 33.7036 586.516 32.3015 587.771 29.9294C589.765 26.1628 587.328 21.2981 588.945 17.3553C591.54 11.0304 601.358 12.3004 606.346 7.62538C607.556 6.49062 608.428 5.03999 609.588 3.85388C613.031 0.334815 618.469 -0.346405 623.368 0.139075C628.267 0.624555 633.082 2.0632 638.004 1.97615C642.672 1.89359 647.566 0.472008 651.867 2.28777C654.477 3.38939 656.471 5.54421 658.379 7.63739L669.412 19.7376C670.927 21.166 672.093 22.9233 672.822 24.874C673.486 27.1924 672.875 29.6816 673.158 32.0765C673.804 37.5385 678.917 41.664 679.607 47.1205C679.746 48.8128 679.664 50.516 679.364 52.1871L677.818 63.5818C677.741 64.693 677.445 65.778 676.948 66.7748C676.498 67.5426 675.819 68.1491 675.313 68.8809C673.884 70.9473 674.015 73.6786 673.305 76.0883C672.595 78.4977 670.049 80.8823 667.822 79.721C666.369 78.9634 665.408 72.6979 663.643 71.0712C661.185 68.8054 659.901 69.0846 656.867 69.123C650.79 69.1998 642.71 69.7209 640.765 61.9195Z" fill="#2F2E41"/>
<path id="Vector_19" d="M648.102 151.891C648.102 151.891 694.295 170.368 680.437 211.941C666.579 253.514 629.625 381.313 629.625 381.313L608.069 392.091L601.91 409.028L572.655 398.25L577.274 375.154C577.274 375.154 578.814 373.614 578.814 367.455C578.814 361.296 572.655 359.756 580.353 359.756C588.052 359.756 588.052 352.057 588.052 352.057L615.768 179.606C615.768 179.606 615.768 150.351 648.102 151.891Z" fill="#D0CDE1"/>
<path id="Vector_20" opacity="0.1" d="M682.747 220.409L635.015 383.622L614.998 403.639L626.546 382.852L682.747 220.409Z" fill="black"/>
<path id="Vector_21" d="M502.87 375C514.143 377.987 523.897 385.072 530.223 394.87L533.494 399.935L533.658 400.145L591.043 416.936C592.095 417.244 592.984 417.952 593.519 418.909C594.054 419.866 594.193 420.994 593.904 422.051L589.449 438.386C589.304 438.918 589.055 439.417 588.717 439.852C588.378 440.288 587.957 440.652 587.477 440.924C586.998 441.196 586.469 441.371 585.921 441.438C585.374 441.505 584.819 441.463 584.287 441.314L526.888 425.27L526.887 425.272L521.122 427.451C510.507 431.465 498.863 431.86 488 428.577V428.577L502.87 375Z" fill="#3F3D56"/>
<path id="Vector_22" d="M495 376.463L373.195 277.5C351.656 259.874 330.986 241.111 311.267 221.286C276.545 186.62 229.41 158.905 174.532 144.149C41.2011 108.298 -64.4239 171.866 -112.465 265.204C-185.877 407.836 -242.138 639.289 83.371 516.087C154.56 489.143 226.619 486.279 281.257 472.086L479.101 429.361L495 376.463Z" fill="#6C63FF"/>
<path id="Vector_23" d="M585.527 393C585.527 393 550.113 429.954 570.13 439.192C590.146 448.431 602.464 397.619 602.464 397.619L585.527 393Z" fill="#FBBEBE"/>
<g id="question">
<path id="Vector_24" d="M37.9973 396.362C21.6039 371.994 14.4859 342.558 17.9342 313.392C21.3824 284.226 35.1686 257.261 56.7926 237.388C78.4166 217.514 106.447 206.048 135.799 205.068C165.152 204.089 193.884 213.661 216.785 232.048C239.686 250.435 255.24 276.421 260.625 305.292C266.01 334.164 260.871 364.009 246.138 389.416C231.406 414.823 208.057 434.109 180.325 443.777C152.592 453.445 122.313 452.855 94.979 442.114C93.2069 448.439 89.894 454.226 85.3368 458.957C80.7796 463.688 75.1205 467.215 68.8659 469.222C62.6114 471.229 55.9566 471.655 49.4975 470.459C43.0384 469.264 36.9765 466.486 31.8544 462.373C26.7323 458.261 22.71 452.942 20.1475 446.894C17.585 440.845 16.5623 434.256 17.1709 427.715C17.7796 421.175 20.0006 414.887 23.6351 409.416C27.2697 403.944 32.2043 399.459 37.9973 396.362V396.362Z" fill="#3F3D56"/>
<path id="Vector_25" d="M139.36 266C167.514 266 186.884 281.616 186.884 304.064C186.884 318.93 179.677 329.215 165.787 337.399C152.724 344.981 148.294 350.537 148.294 360.147C148.294 360.926 148.141 361.697 147.843 362.417C147.545 363.136 147.108 363.79 146.557 364.341C146.006 364.892 145.353 365.329 144.633 365.627C143.913 365.925 143.142 366.078 142.363 366.078H127.97C126.433 366.078 124.956 365.481 123.85 364.413C122.744 363.346 122.096 361.89 122.043 360.354L122.017 359.621C120.741 344.155 126.147 334.546 139.736 326.587C152.424 319.005 157.754 314.2 157.754 304.89C157.754 295.581 148.745 288.748 137.558 288.748C129.056 288.748 122.327 292.887 119.241 299.644C118.156 301.931 116.439 303.86 114.292 305.202C112.146 306.545 109.66 307.244 107.129 307.218V307.218C97.3766 307.218 90.9343 296.847 95.495 288.227C102.709 274.591 117.931 266 139.36 266ZM119.615 394.683C119.615 386.049 126.822 379.217 135.681 379.217C144.616 379.217 151.823 385.974 151.823 394.683C151.823 403.392 144.616 410.149 135.681 410.149C126.747 410.149 119.615 403.392 119.615 394.683V394.683Z" fill="#6C63FF"/>
</g>
<path id="Vector_26" d="M499.831 405.557C504.617 390.8 503.086 377.082 496.412 374.918C489.739 372.754 480.45 382.963 475.664 397.721C470.879 412.478 472.41 426.196 479.083 428.36C485.757 430.524 495.046 420.315 499.831 405.557Z" fill="#6C63FF"/>
<path id="Vector_27" d="M534.409 416.818C535.74 416.818 536.818 415.74 536.818 414.409C536.818 413.079 535.74 412 534.409 412C533.079 412 532 413.079 532 414.409C532 415.74 533.079 416.818 534.409 416.818Z" fill="#3F3D56"/>
<path id="Vector_28" opacity="0.4" d="M502.672 405.355C507.283 391.135 506.029 377.883 499.961 375C500.327 375.046 500.687 375.125 501.037 375.238C507.71 377.402 509.241 391.119 504.456 405.877C499.671 420.635 490.382 430.844 483.708 428.68C483.466 428.6 483.23 428.506 483 428.396C489.564 429.232 498.139 419.335 502.672 405.355Z" fill="black"/>
</g>
</g>
<defs>
<clipPath id="clip0">
<rect width="880.291" height="774.246" fill="white"/>
</clipPath>
</defs>
</svg>
